<?xml version="1.0" encoding="UTF-8" standalone="no"?>
<!-- Created with Inkscape (http://www.inkscape.org/) -->

<svg
   width="210mm"
   height="297mm"
   viewBox="0 0 210 297"
   version="1.1"
   id="svg5"
   inkscape:version="1.1 (c4e8f9e, 2021-05-24)"
   sodipodi:docname="drawing.svg"
   xmlns:inkscape="http://www.inkscape.org/namespaces/inkscape"
   xmlns:sodipodi="http://sodipodi.sourceforge.net/DTD/sodipodi-0.dtd"
   xmlns="http://www.w3.org/2000/svg"
   xmlns:svg="http://www.w3.org/2000/svg">
  <sodipodi:namedview
     id="namedview7"
     pagecolor="#ffffff"
     bordercolor="#111111"
     borderopacity="1"
     inkscape:pageshadow="0"
     inkscape:pageopacity="0"
     inkscape:pagecheckerboard="1"
     inkscape:document-units="mm"
     showgrid="false"
     inkscape:zoom="0.55856481"
     inkscape:cx="43.862412"
     inkscape:cy="418.03564"
     inkscape:window-width="1312"
     inkscape:window-height="855"
     inkscape:window-x="292"
     inkscape:window-y="27"
     inkscape:window-maximized="0"
     inkscape:current-layer="layer1" />
  <defs
     id="defs2">
    <inkscape:path-effect
       effect="spiro"
       id="path-effect10046"
       is_visible="true"
       lpeversion="1" />
    <inkscape:path-effect
       effect="spiro"
       id="path-effect10042"
       is_visible="true"
       lpeversion="1" />
    <linearGradient
       id="linearGradient1084"
       inkscape:swatch="gradient">
      <stop
         style="stop-color:#000000;stop-opacity:1;"
         offset="0"
         id="stop1080" />
      <stop
         style="stop-color:#000000;stop-opacity:0;"
         offset="1"
         id="stop1082" />
    </linearGradient>
  </defs>
  <g
     inkscape:label="Layer 1"
     inkscape:groupmode="layer"
     id="layer1">
    <path
       style="fill:#f50d2e;fill-opacity:0.975708;stroke:#000000;stroke-width:1.565;stroke-linecap:butt;stroke-linejoin:miter;stroke-miterlimit:4;stroke-dasharray:none;stroke-opacity:1"
       d="m 46.303884,129.09113 c 26.526316,32.6842 64.421046,8.05262 64.421046,8.05262 l 0.47369,-37.89473 z"
       id="path892" />
    <path
       style="fill:#ffff00;fill-opacity:0.425101;stroke:#ca0a0a;stroke-width:2.82013;stroke-linecap:butt;stroke-linejoin:miter;stroke-miterlimit:4;stroke-dasharray:2.82013, 2.82013;stroke-dashoffset:0;stroke-opacity:1"
       d="M 103.18529,38.881238 C 23.039724,83.28011 21.127152,83.786258 21.127152,83.786258 l 89.597778,53.357492 z"
       id="path1045"
       inkscape:transform-center-x="28.183359"
       inkscape:transform-center-y="15.894593" />
    <path
       style="fill:#ffff00;stroke:#e50000;stroke-width:0.264583px;stroke-linecap:butt;stroke-linejoin:miter;stroke-opacity:1"
       d="m 23.68421,149.21053 c 0.381054,8.51575 3.373913,16.89692 8.47306,23.72787 5.099147,6.83095 12.283421,12.08333 20.33934,14.86997 8.055918,2.78664 16.95005,3.09597 25.180105,0.87575 8.230054,-2.22022 15.761878,-6.96078 21.323284,-13.42096 6.780641,-7.87645 10.504261,-18.05334 11.896291,-28.35275 1.39203,-10.29941 0.57817,-20.77606 -0.87568,-31.06693 C 107.11291,95.261749 101.66042,74.305314 106.10526,54 c 2.07441,-9.476529 6.46308,-18.686522 13.73684,-25.105265 5.49216,-4.846568 12.48027,-7.928768 19.73748,-8.92171 7.25721,-0.992942 14.75898,0.08043 21.52896,2.876938 13.53995,5.593013 23.71556,17.992501 28.06896,31.980353 4.35339,13.987853 3.21246,29.349968 -1.64818,43.169743 -4.86065,13.819771 -13.2751,26.188701 -23.1609,36.999941 -10.13299,11.08156 -22.39255,20.93893 -36.94737,24.63158 -14.09387,3.5757 -29.820965,0.7658 -41.395428,-8.03503 -5.787232,-4.40041 -10.508493,-10.21074 -13.545956,-16.81601 -3.037463,-6.60526 -4.37616,-13.99593 -3.754708,-21.23952 0.621451,-7.24358 3.212074,-14.320781 7.490065,-20.199088 4.277992,-5.878306 10.239537,-10.532581 17.014514,-13.169886 6.774973,-2.637305 14.342583,-3.235786 21.427633,-1.605521 7.08505,1.630265 13.65249,5.495549 18.44809,10.95979 5.18315,5.905824 8.24718,13.726525 8.03284,21.581325 -0.21434,7.85479 -3.81443,15.63964 -9.92758,20.57657 -3.3315,2.69049 -7.36381,4.52746 -11.59775,5.16883 -4.23394,0.64137 -8.65921,0.072 -12.54933,-1.71812 -3.89011,-1.79014 -7.221809,-4.80792 -9.294615,-8.55507 -2.072806,-3.74714 -2.857906,-8.21012 -2.084616,-12.42196 0.690561,-3.76125 2.612031,-7.28074 5.377711,-9.92175 2.76567,-2.641 6.35869,-4.395097 10.1367,-4.98712 5.50237,-0.862234 11.35088,0.81475 15.5603,4.46172 4.20941,3.64697 6.70243,9.19694 6.63282,14.76602 -0.0696,5.56909 -2.70059,11.05501 -6.99985,14.59562 -4.29926,3.5406 -10.18786,5.07087 -15.66696,4.07137 -4.42069,-0.80643 -8.5301,-3.22056 -11.386761,-6.68933 -2.856661,-3.46876 -4.438057,-7.96481 -4.38189,-12.45811 0.05617,-4.49329 1.749454,-8.94841 4.691929,-12.34468 2.942472,-3.39627 7.110942,-5.706935 11.550412,-6.40261"
       id="path10040"
       inkscape:path-effect="#path-effect10042"
       inkscape:original-d="M 23.68421,149.21053 C 48.789738,157.895 73.894999,166.57921 98.999999,175.26316 124.105,183.9471 103.7371,94.421316 106.10526,54 108.47342,13.578683 115.26342,37.263421 119.8421,28.894735 124.42079,20.526051 149.52658,99.631843 164.36842,135 c 14.84184,35.36815 -24.63131,16.42131 -36.94737,24.63158 -12.31605,8.21026 3.78974,-46.73658 5.68421,-70.105265 1.89447,-23.368685 -1.26289,28.105525 -1.89474,42.157895 -0.63184,14.05237 -23.68394,-11.68395 -35.526311,-17.52632 -11.842369,-5.84237 10.343201,-9.93898 15.514411,-14.90887 5.1712,-4.969891 -0.31553,25.26342 -0.47369,37.89473 -0.15816,12.63131 0.31606,-25.26289 0.47369,-37.89473" />
    <path
       style="fill:none;stroke:#f90526;stroke-width:5.165;stroke-linecap:butt;stroke-linejoin:miter;stroke-opacity:1;stroke-miterlimit:4;stroke-dasharray:none;fill-opacity:1"
       d="m 93.315789,244.42105 c 2.353961,3.67678 6.088686,6.44609 10.290691,7.63057 4.20201,1.18448 8.83323,0.77341 12.76092,-1.13267 3.92768,-1.90609 7.11625,-5.28991 8.7858,-9.32383 1.66955,-4.03391 1.80496,-8.68137 0.37311,-12.80565 -1.0282,-2.96161 -2.82251,-5.61997 -4.97822,-7.89621 -2.15571,-2.27623 -4.66986,-4.18673 -7.28544,-5.91505 -5.23115,-3.45664 -10.93987,-6.24671 -15.683704,-10.34663 -8.313187,-7.18478 -12.933791,-17.78056 -15.6381,-28.43029 -2.704309,-10.64974 -3.754381,-21.662 -6.381659,-32.331 -2.627277,-10.669 -7.081626,-21.31072 -15.237106,-28.67403 -4.07774,-3.68165 -9.040242,-6.45027 -14.412142,-7.60145 -5.371899,-1.15118 -11.151727,-0.62619 -16.067834,1.82624 -4.148113,2.06931 -7.521923,5.37914 -11.279623,8.09366 -1.878849,1.35725 -3.876898,2.5777 -6.050093,3.38358 -2.173195,0.80588 -4.536395,1.18489 -6.8281786,0.83855 -2.7497889,-0.41555 -5.2983214,-1.87846 -7.1839621,-3.92257 -1.8856408,-2.04411 -3.1234258,-4.6447 -3.7072955,-7.36373 -1.1677392,-5.43806 0.2420591,-11.140391 2.5566324,-16.197944 C -0.3358416,89.195042 2.8572351,84.595562 5.5303616,79.718013 8.2034882,74.840463 10.393683,69.509322 10.421053,63.947367 10.445153,59.049933 8.7937113,54.305943 6.9201956,49.78097 5.0466799,45.255996 2.9161562,40.789795 1.8947368,35.999999 0.23497817,28.216805 1.770688,19.681035 6.5511358,13.318628 8.9413598,10.137425 12.100784,7.5260131 15.710872,5.8525474 19.320961,4.1790816 23.377693,3.4551831 27.336228,3.859193 c 3.958536,0.4040098 7.805851,1.9450046 10.897638,4.449815 3.091788,2.504811 5.407754,5.972379 6.45871,9.81018 1.050957,3.837801 0.817959,8.028343 -0.726926,11.695297 -1.544884,3.666955 -4.404822,6.778062 -7.965651,8.553934 -2.540182,1.266851 -5.397775,1.865982 -7.813561,3.356422 -1.207894,0.745221 -2.299435,1.724307 -2.997376,2.960121 -0.697942,1.235814 -0.971021,2.746812 -0.557483,4.104511 0.325159,1.067539 1.058007,1.989978 1.975032,2.625927 0.917026,0.635948 2.009667,0.995117 3.118398,1.121932 2.217463,0.25363 4.433884,-0.394047 6.536515,-1.142652 2.102631,-0.748605 4.200776,-1.613979 6.423127,-1.820427 1.111176,-0.103224 2.246826,-0.03628 3.314067,0.289854 1.067241,0.326134 2.064446,0.920216 2.790755,1.767472 1.109866,1.294684 1.509134,3.108125 1.277135,4.797559 -0.232,1.689433 -1.047262,3.259567 -2.111707,4.591845 -2.128889,2.664556 -5.182269,4.406191 -7.691745,6.715858 -3.500164,3.221476 -5.917295,7.599835 -6.77837,12.278254 -0.861076,4.67842 -0.161232,9.630467 1.962576,13.887049 2.123808,4.256583 5.659581,7.793656 9.915384,9.919026 4.255804,2.12537 9.207594,2.82703 13.886329,1.96767 4.678734,-0.85936 9.05798,-3.27489 12.28074,-6.773868 3.222759,-3.498983 5.270824,-8.061655 5.743399,-12.795125 0.472574,-4.733469 -0.633012,-9.610992 -3.100401,-13.678061 -2.467389,-4.067068 -6.282641,-7.300705 -10.699129,-9.068102"
       id="path10044"
       inkscape:path-effect="#path-effect10046"
       inkscape:original-d="m 93.315789,244.42105 c 10.737111,-5.21026 21.473951,-10.42079 32.210521,-15.63158 10.73658,-5.21079 -18.63131,-16.105 -27.947364,-24.15789 -9.316053,-8.0529 -45.15763,-63.47342 -67.736841,-95.21053 -22.5792119,-31.737106 -16.104999,8.21079 -24.1578946,12.31579 -8.052896,4.105 3.1581595,-38.526049 4.7368426,-57.789473 1.578682,-19.26342 -5.6839464,-18.631312 -8.5263162,-27.947368 -2.8423698,-9.316053 22.7371062,1.579213 34.1052622,2.36842 11.368156,0.78921 -7.578683,6.947636 -11.36842,10.421054 -3.789739,3.473421 16.105528,1.895001 24.157894,2.842106 8.052366,0.947103 -5.683946,10.737107 -8.526317,16.105262 -2.842368,5.368157 15.47395,-2.841839 23.210528,-4.263157" />
  </g>
</svg>
